<svg xmlns="http://www.w3.org/2000/svg" xmlns:xlink="http://www.w3.org/1999/xlink" viewBox="0 0 169.46 108.43"><defs><linearGradient id="a" x1="-55.47" y1="244.11" x2="-219.45" y2="244.11" gradientTransform="translate(278.3 -164.96)" gradientUnits="userSpaceOnUse"><stop offset="0" stop-color="#fff"/><stop offset="1"/></linearGradient><linearGradient id="b" x1="20.57" y1="244.05" x2="-223.34" y2="244.05" gradientTransform="translate(228.99 -201.24)" xlink:href="#a"/><linearGradient id="c" x1="-349.12" y1="225.29" x2="-86.54" y2="225.29" gradientTransform="matrix(0, 1.02, -1.04, 0, 363.53, 132.64)" xlink:href="#a"/><linearGradient id="d" x1="-163.83" y1="220.44" x2="-46.06" y2="220.44" gradientTransform="matrix(0, 1.02, -1.04, 0, 356.98, 123.37)" xlink:href="#a"/><linearGradient id="e" x1="-284.98" y1="244.05" x2="-147.24" y2="244.05" gradientTransform="translate(235.92 -201.24)" xlink:href="#a"/><linearGradient id="f" x1="-76.13" y1="238.49" x2="-219.34" y2="238.49" gradientTransform="translate(271.54 -201.4)" xlink:href="#a"/><linearGradient id="g" x1="-227.14" y1="243.74" x2="-64.86" y2="243.74" gradientTransform="translate(226.9 -201.24)" xlink:href="#a"/><linearGradient id="h" x1="-470.17" y1="239.41" x2="-151.92" y2="239.41" gradientTransform="translate(278.91 -203.03)" xlink:href="#a"/><linearGradient id="i" x1="-278.15" y1="238.54" x2="-88.89" y2="238.54" gradientTransform="translate(277.66 -153.82)" xlink:href="#a"/><linearGradient id="j" x1="-260.04" y1="244.34" x2="-152.89" y2="244.34" gradientTransform="translate(287.59 -165.18)" xlink:href="#a"/><linearGradient id="k" x1="-247.25" y1="232.55" x2="-104.51" y2="232.55" gradientTransform="translate(271.11 -201.41)" xlink:href="#a"/><linearGradient id="l" x1="-22.72" y1="224.1" x2="-140.88" y2="224.1" gradientTransform="matrix(0, 1.02, -1.04, 0, 359.63, 127.27)" xlink:href="#a"/><linearGradient id="m" x1="99.8" y1="30.51" x2="156.47" y2="30.51" gradientUnits="userSpaceOnUse"><stop offset="0" stop-color="red"/><stop offset="0.01" stop-color="#ff0a06"/><stop offset="0.07" stop-color="#fe331d"/><stop offset="0.13" stop-color="#fd5732"/><stop offset="0.2" stop-color="#fd7443"/><stop offset="0.27" stop-color="#fd8b50"/><stop offset="0.34" stop-color="#fc9b59"/><stop offset="0.42" stop-color="#fca45e"/><stop offset="0.54" stop-color="#fca760"/><stop offset="1" stop-color="#e3ff15"/></linearGradient><clipPath id="n"><path d="M78.35,97.3A102.15,102.15,0,0,0,156.6,60.93h0A102.16,102.16,0,0,1,71.47,75.07a102.59,102.59,0,0,1-18.31-7A101.22,101.22,0,0,0,32.68,86.57,102,102,0,0,0,78.35,97.3" style="fill:none;clip-rule:evenodd"/></clipPath><linearGradient id="o" x1="151.73" y1="80.49" x2="-11.81" y2="80.49" gradientUnits="userSpaceOnUse"><stop offset="0.01" stop-color="#02543f"/><stop offset="0.15" stop-color="#017b48"/><stop offset="0.37" stop-color="#01b054"/><stop offset="0.53" stop-color="#00d15b"/><stop offset="0.62" stop-color="#00dd5e"/></linearGradient><mask id="p" x="75.8" y="61.01" width="80.74" height="36.29" maskUnits="userSpaceOnUse"><rect x="75.8" y="61.01" width="80.74" height="36.29" style="fill:url(#a)"/></mask><clipPath id="q"><path d="M78.14,24.59A102.17,102.17,0,0,1,156.44,61a102.38,102.38,0,0,0-136,18.33A103.15,103.15,0,0,1,0,60.82,102.15,102.15,0,0,1,78.14,24.59" style="fill:none;clip-rule:evenodd"/></clipPath><linearGradient id="r" x1="155.27" y1="51.97" x2="-9.87" y2="51.97" gradientUnits="userSpaceOnUse"><stop offset="0.05" stop-color="#d8ff3f"/><stop offset="0.16" stop-color="#89f472"/><stop offset="0.24" stop-color="#4fec98"/><stop offset="0.31" stop-color="#2be7af"/><stop offset="0.34" stop-color="#1de5b8"/><stop offset="0.55" stop-color="#1baf8a"/><stop offset="0.72" stop-color="#1a8a6b"/><stop offset="0.81" stop-color="#1a7c5f"/></linearGradient><mask id="s" x="26.49" y="24.59" width="129.94" height="36.42" maskUnits="userSpaceOnUse"><rect x="26.49" y="24.59" width="129.94" height="36.42" style="fill:url(#b)"/></mask><linearGradient id="t" x1="26.49" y1="42.81" x2="156.43" y2="42.81" gradientUnits="userSpaceOnUse"><stop offset="0" stop-color="#d8423f"/><stop offset="0" stop-color="#c63c3a"/><stop offset="0.01" stop-color="#9d302e"/><stop offset="0.02" stop-color="#772423"/><stop offset="0.02" stop-color="#571a19"/><stop offset="0.03" stop-color="#3b1211"/><stop offset="0.04" stop-color="#250b0b"/><stop offset="0.05" stop-color="#140606"/><stop offset="0.07" stop-color="#090303"/><stop offset="0.09" stop-color="#020101"/><stop offset="0.14"/></linearGradient><clipPath id="u"><path d="M83.81,14.28A102.2,102.2,0,0,1,156.44,61h0A102.53,102.53,0,0,0,42.11,45.1,102.33,102.33,0,0,1,24.4,24a101.92,101.92,0,0,1,59.41-9.71" style="fill:none;clip-rule:evenodd"/></clipPath><linearGradient id="v" x1="24.4" y1="38.14" x2="156.44" y2="38.14" gradientUnits="userSpaceOnUse"><stop offset="0.21" stop-color="#009cbf"/><stop offset="0.41" stop-color="#0c5dd0"/><stop offset="0.59" stop-color="#162bdd"/><stop offset="0.73" stop-color="#1c0ce6"/><stop offset="0.8" stop-color="#1e00e9"/></linearGradient><mask id="w" x="33.42" y="24.59" width="123.02" height="36.43" maskUnits="userSpaceOnUse"><rect x="33.42" y="24.59" width="123.02" height="36.43" style="fill:url(#e)"/></mask><linearGradient id="x" x1="33.42" y1="42.81" x2="156.44" y2="42.81" gradientUnits="userSpaceOnUse"><stop offset="0" stop-color="#213fa8"/><stop offset="0.02" stop-color="#1f3a9b"/><stop offset="0.07" stop-color="#172d77"/><stop offset="0.12" stop-color="#112057"/><stop offset="0.19" stop-color="#0c163b"/><stop offset="0.26" stop-color="#070e25"/><stop offset="0.34" stop-color="#040814"/><stop offset="0.45" stop-color="#020309"/><stop offset="0.59" stop-color="#000102"/><stop offset="1"/></linearGradient><mask id="y" x="69.04" y="13.32" width="87.29" height="47.54" maskUnits="userSpaceOnUse"><rect x="69.04" y="13.32" width="87.29" height="47.54" style="fill:url(#f)"/></mask><mask id="z" x="24.4" y="23.99" width="132.03" height="37.03" maskUnits="userSpaceOnUse"><rect x="24.4" y="23.99" width="132.03" height="37.03" style="fill:url(#g)"/></mask><clipPath id="aa"><path d="M90.69,5a102.14,102.14,0,0,1,65.67,55.82h-.07A102.19,102.19,0,0,0,83.46,24.73c-1.11-1.31-2.2-2.66-3.25-4A102.92,102.92,0,0,1,68.61,1.44,102.5,102.5,0,0,1,90.69,5" style="fill:none;clip-rule:evenodd"/></clipPath><linearGradient id="ab" x1="261" y1="31.14" x2="51.72" y2="31.14" gradientUnits="userSpaceOnUse"><stop offset="0.46" stop-color="#bf00a0"/><stop offset="0.55" stop-color="#bb05a3"/><stop offset="0.65" stop-color="#b012ae"/><stop offset="0.75" stop-color="#9d29be"/><stop offset="0.86" stop-color="#8349d6"/><stop offset="0.96" stop-color="#6172f4"/><stop offset="1" stop-color="#5581ff"/></linearGradient><mask id="ac" x="76.42" y="13.54" width="78.86" height="45.69" maskUnits="userSpaceOnUse"><rect x="76.42" y="13.54" width="78.86" height="45.69" style="fill:url(#h)"/></mask><linearGradient id="ad" x1="76.42" y1="36.38" x2="155.28" y2="36.38" gradientUnits="userSpaceOnUse"><stop offset="0"/><stop offset="0.37" stop-color="#020202"/><stop offset="0.51" stop-color="#090909"/><stop offset="0.6" stop-color="#141414"/><stop offset="0.68" stop-color="#252525"/><stop offset="0.75" stop-color="#3b3b3b"/><stop offset="0.81" stop-color="#575757"/><stop offset="0.86" stop-color="#777"/><stop offset="0.91" stop-color="#9d9d9d"/><stop offset="0.95" stop-color="#c8c8c8"/><stop offset="0.99" stop-color="#f6f6f6"/><stop offset="1" stop-color="#fff"/></linearGradient><clipPath id="ae"><path d="M84,107.61A102.18,102.18,0,0,0,156.57,61h-.07A102.31,102.31,0,0,1,92.93,87.33a102.58,102.58,0,0,0-12.72,13.85c-1.8,2.36-3.48,4.79-5,7.25q4.41-.21,8.87-.82" style="fill:#00dd5e;clip-rule:evenodd"/></clipPath><linearGradient id="af" x1="75.16" y1="84.72" x2="156.57" y2="84.72" gradientUnits="userSpaceOnUse"><stop offset="0.18" stop-color="#ffec15"/><stop offset="0.34" stop-color="#fee916"/><stop offset="0.48" stop-color="#fcde17"/><stop offset="0.61" stop-color="#f9cc1a"/><stop offset="0.73" stop-color="#f5b31f"/><stop offset="0.81" stop-color="#f19f22"/></linearGradient><mask id="ag" x="75.16" y="61.01" width="81.41" height="47.43" maskUnits="userSpaceOnUse"><rect x="75.16" y="61.01" width="81.41" height="47.43" style="fill:url(#i)"/></mask><mask id="ah" x="85.09" y="61.25" width="71.25" height="35.83" maskUnits="userSpaceOnUse"><rect x="85.09" y="61.25" width="71.25" height="35.83" style="fill:url(#j)"/></mask><mask id="ai" x="68.61" y="1.44" width="87.75" height="59.42" maskUnits="userSpaceOnUse"><rect x="68.61" y="1.44" width="87.75" height="59.42" style="fill:url(#k)"/></mask><mask id="aj" x="87.16" y="7.26" width="79.68" height="53.76" maskUnits="userSpaceOnUse"><rect x="111.82" y="-2.73" width="30.36" height="73.74" transform="translate(51.47 141.79) rotate(-69.99)" style="fill:url(#l)"/></mask><clipPath id="al"><path d="M116.54,8.53c22.16,13.75,36,33.12,39.93,52.49l-.05,0c-9.49-17.67-27.09-33.4-49.92-42.73-.6-1.11-1.16-2.23-1.7-3.36A65.25,65.25,0,0,1,99.8,0a113.72,113.72,0,0,1,16.74,8.53" style="fill:url(#m);clip-rule:evenodd"/></clipPath><linearGradient id="am" x1="302.94" y1="19.04" x2="130.27" y2="19.04" gradientTransform="matrix(0, 1.02, -1.04, 0, 147.9, -154.19)" gradientUnits="userSpaceOnUse"><stop offset="0.47" stop-color="#cfcc1a"/><stop offset="0.52" stop-color="#cfc920"/><stop offset="0.59" stop-color="#cdc130"/><stop offset="0.67" stop-color="#cbb54a"/><stop offset="0.76" stop-color="#c8a26f"/><stop offset="0.85" stop-color="#c38b9e"/><stop offset="0.94" stop-color="#be6fd7"/><stop offset="1" stop-color="#bb5cff"/></linearGradient><mask id="an" x="93.37" y="9.52" width="72.58" height="50.21" maskUnits="userSpaceOnUse"><rect x="115.07" y="1.32" width="29.18" height="66.61" transform="translate(52.77 144.62) rotate(-69.99)" style="fill:url(#c)"/></mask><mask id="ao" x="86.82" y="0" width="82.64" height="61.02" maskUnits="userSpaceOnUse"><rect x="109.16" y="-6.55" width="37.95" height="74.13" transform="translate(55.63 140.48) rotate(-69.99)" style="fill:url(#d)"/></mask></defs><path d="M144,67.6c.18-.62.36-1.32.51-2.11a20.26,20.26,0,0,1-.58,2.26Z" style="fill:none"/><path d="M58.6,69.13c.14.35.28.67.41,1C58.88,69.8,58.74,69.48,58.6,69.13Z" style="fill:none"/><path d="M144,67.75a20.26,20.26,0,0,0,.58-2.26A21.42,21.42,0,0,0,144,55.27c0-.13-.07-.26-.11-.38a23.84,23.84,0,0,0-.94-2.42h0l-.06-.11c-.87-.4-1.76-.78-2.65-1.14a20.71,20.71,0,0,1,2.68,10.08c0,.24,0,.48,0,.72A21.49,21.49,0,0,1,139,73.44c1.91-.8,3-1.34,3.14-1.4h0Z" style="fill:#fff"/><path d="M59.39,61.3a21.42,21.42,0,0,1,4.34-12.68c-1,.37-2.09.76-3.13,1.17a22.64,22.64,0,0,0-3,7.41.3.3,0,0,0,0,.1c-.06.27-.1.54-.15.81s-.12.8-.17,1.22a21,21,0,0,0-.06,3.15c0,.16,0,.32,0,.48l0,.37c0,.48.1.94.17,1.39,0,.18.07.36.1.55s.09.44.14.66,0,.19.05.27l.12.46c0,.15.07.29.11.43l0,.09c.06.24.13.47.2.7l0,.05q.21.64.42,1.2c.14.35.28.67.41,1l.09.2c0,.09.07.17.11.25a.33.33,0,0,0,0,.06c.17.37.36.73.55,1.09,0,0,0,0,0,0q1.74.86,3.48,1.62A21.4,21.4,0,0,1,59.4,62C59.39,61.78,59.39,61.54,59.39,61.3Z" style="fill:#fff"/><path d="M62.75,61.3c0-5.3,2.3-10.23,6.26-14.36-.82.24-1.65.48-2.46.75a21,21,0,0,0-5.47,13.75c0,.19,0,.39,0,.58a20.82,20.82,0,0,0,4.85,12.43c1,.4,2,.78,3,1.15A20.92,20.92,0,0,1,62.76,62C62.75,61.78,62.75,61.54,62.75,61.3Z" style="fill:#fff"/><path d="M141.26,61.44a20.13,20.13,0,0,0-3.55-11.24c-.79-.3-1.59-.6-2.4-.88a19.83,19.83,0,0,1,4.23,12c0,.24,0,.48,0,.72a20.89,20.89,0,0,1-6.06,13.45c1.08-.37,2.07-.72,3-1A20.85,20.85,0,0,0,141.25,62C141.26,61.83,141.26,61.63,141.26,61.44Z" style="fill:#fff"/><path d="M137.82,62c0-.19,0-.39,0-.58a19.42,19.42,0,0,0-5.49-13.13c-.84-.28-1.69-.54-2.54-.79,4,3.89,6.38,8.65,6.38,13.78,0,.24,0,.48,0,.72-.25,5.91-3.63,11.27-9,15.36,1.18-.32,2.29-.64,3.35-.95C134.93,72.4,137.64,67.42,137.82,62Z" style="fill:#fff"/><path d="M66.13,62c0-.24,0-.48,0-.72,0-6.08,3.32-11.63,8.78-15.85-.87.19-1.73.39-2.58.61-4.89,4.24-7.8,9.57-7.8,15.38,0,.19,0,.39,0,.58.19,5.52,3,10.59,7.64,14.66,1.15.37,2.3.71,3.45,1C69.94,73.58,66.39,68.09,66.13,62Z" style="fill:#fff"/><path d="M69.73,62c0-.24,0-.48,0-.72,0-7,4.94-13.28,12.59-17.22-1.19.17-2.38.37-3.57.59h0C72,48.82,67.81,54.79,67.81,61.44c0,.2,0,.39,0,.58.25,6.68,4.75,12.64,11.73,16.67,1.81.41,3.6.75,5.37,1C76.08,76.08,70.09,69.53,69.73,62Z" style="fill:#fff"/><path d="M134.39,62c0-.19,0-.38,0-.58,0-5.72-3.12-10.94-8.25-14.93-1.07-.28-2.15-.55-3.23-.79,6,3.92,9.77,9.45,9.77,15.58,0,.24,0,.48,0,.72-.34,7.24-5.92,13.57-14.22,17.29,1.67-.3,3.28-.63,4.81-1h0C129.9,74.31,134.15,68.5,134.39,62Z" style="fill:#fff"/><path d="M130.76,62a5.62,5.62,0,0,0,0-.58c0-7-5.14-13.11-13-16.75-1.9-.35-3.82-.64-5.74-.88,9.88,2.93,16.79,9.66,16.79,17.49q0,.36,0,.72C128.29,72.22,116,80.37,101,80.37h-.79C85.49,80.08,73.65,72,73.11,62q0-.36,0-.72c0-8.61,8.37-15.89,19.85-18.25-1.8.09-3.59.21-5.38.39-9.53,3.36-16,10.16-16,18a5.62,5.62,0,0,0,0,.58C71.87,70.6,80,77.85,91.34,80.55c3,.28,6,.41,8.84.41a99.39,99.39,0,0,0,11.88-.7h0C122.8,77.35,130.43,70.31,130.76,62Z" style="fill:#fff"/><path d="M101.07,79.35c14.48,0,26.21-8,26.21-17.91s-11.73-17.91-26.21-17.91-26.2,8-26.2,17.91S86.6,79.35,101.07,79.35Zm0-34.66c13.43,0,24.32,7.44,24.32,16.62s-10.89,16.62-24.32,16.62S76.74,70.49,76.74,61.31,87.62,44.69,101.05,44.69Z" style="fill:#fff"/><path d="M101.16,76.91c12.5,0,22.63-6.93,22.63-15.47S113.66,46,101.16,46,78.53,52.9,78.53,61.44,88.66,76.91,101.16,76.91Zm0-29.87C112.66,47,122,53.43,122,61.31s-9.35,14.26-20.87,14.26S80.27,69.19,80.27,61.31,89.61,47,101.14,47Z" style="fill:#fff"/><path d="M101.09,74.43c10.61,0,19.2-5.87,19.2-13.12s-8.59-13.13-19.2-13.13-19.2,5.88-19.2,13.13S90.49,74.43,101.09,74.43Zm.12-25.18c9.74,0,17.63,5.4,17.63,12.06s-7.89,12-17.63,12S83.57,68,83.57,61.31,91.46,49.25,101.21,49.25Z" style="fill:#fff"/><path d="M101,70.55c7.35,0,13.3-4,13.3-9s-6-9-13.3-9a17.92,17.92,0,0,0-7.49,1.57A4.38,4.38,0,0,1,94,54c1.73,0,3.14,1,3.14,2.16S95.75,58.34,94,58.34s-3.14-1-3.14-2.17a1.62,1.62,0,0,1,.15-.64,7.67,7.67,0,0,0-3.35,6C87.68,66.5,93.64,70.55,101,70.55Zm.14-13c3.31,0,6,1.85,6,4.13s-2.68,4.13-6,4.13-6-1.85-6-4.13S97.82,57.51,101.13,57.51Z" style="fill:#2ca1c0"/><ellipse cx="101.13" cy="61.64" rx="8.97" ry="6.18"/><path d="M142.91,61.3a20.71,20.71,0,0,0-2.68-10.08c-.83-.36-1.67-.69-2.52-1a20.13,20.13,0,0,1,3.55,11.24c0,.19,0,.39,0,.58a20.85,20.85,0,0,1-4.82,12.4c1-.36,1.8-.69,2.53-1A21.49,21.49,0,0,0,142.9,62C142.91,61.78,142.91,61.54,142.91,61.3Z" style="fill:#70706f"/><path d="M61.08,61.44a21,21,0,0,1,5.47-13.75q-1.42.44-2.82.93A21.42,21.42,0,0,0,59.39,61.3c0,.24,0,.48,0,.72a21.4,21.4,0,0,0,3.88,11.32c.89.39,1.77.76,2.66,1.11A20.82,20.82,0,0,1,61.09,62C61.08,61.83,61.08,61.63,61.08,61.44Z" style="fill:#70706f"/><path d="M64.52,62c0-.19,0-.39,0-.58,0-5.81,2.91-11.14,7.8-15.38-1.11.27-2.21.57-3.3.88-4,4.13-6.26,9.06-6.26,14.36,0,.24,0,.48,0,.72A20.92,20.92,0,0,0,68.94,75.6c1.07.38,2.15.74,3.22,1.08C67.52,72.61,64.71,67.54,64.52,62Z" style="fill:#898889"/><path d="M139.54,61.3a19.83,19.83,0,0,0-4.23-12c-1-.36-2-.69-3-1a19.42,19.42,0,0,1,5.49,13.13c0,.19,0,.39,0,.58-.18,5.4-2.89,10.38-7.35,14.41q1.6-.5,3-1A20.89,20.89,0,0,0,139.53,62C139.54,61.78,139.54,61.54,139.54,61.3Z" style="fill:#898889"/><path d="M136.16,62c0-.24,0-.48,0-.72,0-5.13-2.36-9.89-6.38-13.78-1.21-.36-2.42-.7-3.65-1,5.13,4,8.25,9.21,8.25,14.93,0,.2,0,.39,0,.58-.24,6.48-4.49,12.29-11.12,16.31,1.35-.31,2.63-.63,3.85-1C132.53,73.29,135.91,67.93,136.16,62Z" style="fill:#6b6b6d"/><path d="M67.82,62c0-.19,0-.38,0-.58,0-6.65,4.21-12.62,10.91-16.77-1.28.23-2.56.49-3.83.78-5.46,4.22-8.78,9.77-8.78,15.85,0,.24,0,.48,0,.72.26,6.07,3.81,11.56,9.48,15.69,1.32.36,2.64.68,3.94,1C72.57,74.66,68.07,68.7,67.82,62Z" style="fill:#6b6b6d"/><path d="M71.52,62a5.62,5.62,0,0,1,0-.58c0-7.84,6.52-14.64,16-18-1.76.17-3.51.38-5.25.64C74.65,48,69.71,54.26,69.71,61.3c0,.24,0,.48,0,.72.36,7.51,6.35,14.06,15.19,17.71q3.26.54,6.42.82C80,77.85,71.87,70.6,71.52,62Z" style="fill:#636563"/><path d="M132.67,62c0-.24,0-.48,0-.72,0-6.13-3.75-11.66-9.77-15.58-1.69-.39-3.4-.73-5.11-1,7.83,3.64,13,9.78,13,16.75a5.62,5.62,0,0,1,0,.58c-.33,8.29-8,15.33-18.66,18.24q3.32-.41,6.35-1C126.75,75.59,132.33,69.26,132.67,62Z" style="fill:#636563"/><path d="M73.08,61.3q0,.36,0,.72c.54,10,12.38,18.06,27.07,18.34H101c15.06,0,27.32-8.15,27.86-18.35q0-.36,0-.72c0-7.83-6.91-14.56-16.79-17.49A107.48,107.48,0,0,0,100.18,43c-2.42-.06-4.84,0-7.25.09C81.45,45.41,73.08,52.69,73.08,61.3Zm28-17.77c14.48,0,26.21,8,26.21,17.91s-11.73,17.91-26.21,17.91-26.2-8-26.2-17.91S86.6,43.53,101.07,43.53Z" style="fill:#4a4f4c"/><path d="M101.05,77.93c13.43,0,24.32-7.44,24.32-16.62s-10.89-16.62-24.32-16.62S76.74,52.13,76.74,61.31,87.62,77.93,101.05,77.93Zm.11-32c12.5,0,22.63,6.93,22.63,15.47s-10.13,15.47-22.63,15.47S78.53,70,78.53,61.44,88.66,46,101.16,46Z" style="fill:#383640"/><path d="M101.14,75.57c11.52,0,20.87-6.38,20.87-14.26S112.66,47,101.14,47,80.27,53.43,80.27,61.31,89.61,75.57,101.14,75.57Zm0-27.39c10.61,0,19.2,5.88,19.2,13.13s-8.59,13.12-19.2,13.12-19.2-5.87-19.2-13.12S90.49,48.18,101.09,48.18Z" style="fill:#151a24"/><path d="M101.21,73.36c9.74,0,17.63-5.39,17.63-12S111,49.25,101.21,49.25s-17.64,5.4-17.64,12.06S91.46,73.36,101.21,73.36Zm-.08-22.79c8.68,0,15.71,4.81,15.71,10.74s-7,10.74-15.71,10.74S85.41,67.24,85.41,61.31,92.45,50.57,101.13,50.57Z" style="fill:#100e10"/><path d="M142.94,52.47h0a23.84,23.84,0,0,1,.94,2.42c0,.12.07.25.11.38a21.42,21.42,0,0,1,.56,10.22c-.15.79-.33,1.49-.51,2.11l-.07.15L142.11,72h0c5.49-3.63,2.6-7.43,8.09-11.06C145,58.08,148.16,55.36,142.94,52.47Z" style="fill:#636565"/><path d="M59,70.15l0-.05c-.13-.3-.27-.62-.41-1s-.28-.77-.42-1.2l0-.05c-.07-.23-.14-.46-.2-.7l0-.09c0-.14-.07-.28-.11-.43l-.12-.46c0-.08,0-.18-.05-.27s-.1-.44-.14-.66-.07-.37-.1-.55c-.07-.45-.13-.91-.17-1.39l0-.37c0-.16,0-.32,0-.48a21,21,0,0,1,.06-3.15c0-.42.11-.82.17-1.22s.09-.54.15-.81a.3.3,0,0,1,0-.1,21.4,21.4,0,0,1,2.94-7.28A77,77,0,0,0,51,54.19,78.59,78.59,0,0,0,43.08,59,51.93,51.93,0,0,0,59.8,71.72c-.17-.3-.37-.7-.59-1.17,0-.08-.07-.16-.11-.25Z" style="fill:#636565"/><path d="M59.1,70.3,59,70.1l0,.05Z" style="fill:#315faf"/><path d="M101.13,72.05c8.68,0,15.71-4.81,15.71-10.74s-7-10.74-15.71-10.74S85.41,55.38,85.41,61.31,92.45,72.05,101.13,72.05ZM91,55.53a1.62,1.62,0,0,0-.15.64c0,1.2,1.4,2.17,3.14,2.17s3.14-1,3.14-2.17S95.75,54,94,54a4.38,4.38,0,0,0-.52,0A17.92,17.92,0,0,1,101,52.48c7.35,0,13.3,4,13.3,9s-6,9-13.3,9-13.31-4-13.31-9A7.67,7.67,0,0,1,91,55.53Z" style="fill:#fff"/><g style="clip-path:url(#n)"><rect x="28.72" y="62.31" width="123.93" height="36.38" style="fill:url(#o)"/></g><g style="mask:url(#p)"><path d="M91.14,82.52A103,103,0,0,0,77.43,95.38c-.55.62-1.1,1.25-1.63,1.89q1.28,0,2.55,0A102.18,102.18,0,0,0,156.54,61h0A102.4,102.4,0,0,1,91.14,82.52Z" style="fill:#020c6a;fill-rule:evenodd"/></g><g style="clip-path:url(#q)"><rect y="24.59" width="156.44" height="54.75" style="fill:url(#r)"/></g><g style="mask:url(#s)"><path d="M78.14,24.59a101.86,101.86,0,0,0-51.65,14,101.74,101.74,0,0,0,14.8,14.38,102.52,102.52,0,0,1,115.08,8l.06,0,0,0A102.15,102.15,0,0,0,78.14,24.59Z" style="fill-rule:evenodd;fill:url(#t)"/></g><g style="clip-path:url(#u)"><rect x="24.4" y="13.32" width="132.04" height="49.64" style="fill:url(#v)"/></g><g style="mask:url(#w)"><path d="M78.14,24.59A102,102,0,0,0,33.42,34.85a111.94,111.94,0,0,0,9,8.33,104.12,104.12,0,0,1,31.37-9.4C110.31,28.86,141.2,45.1,156.44,61h0A102.17,102.17,0,0,0,78.14,24.59Z" style="fill-rule:evenodd;fill:url(#x)"/></g><g style="mask:url(#y)"><path d="M83.81,14.28a104.05,104.05,0,0,0-14.77-1,103.26,103.26,0,0,0,8.9,12q1.71,2,3.48,3.84a102.14,102.14,0,0,1,74.86,31.71h.06A102.21,102.21,0,0,0,83.81,14.28Z" style="fill:#004c41;fill-rule:evenodd"/></g><g style="mask:url(#z)"><path d="M73.76,33.78a104.12,104.12,0,0,0-31.37,9.4A101.26,101.26,0,0,1,24.4,24,102.33,102.33,0,0,0,42.11,45.1,102.53,102.53,0,0,1,156.44,61h0C141.2,45.1,110.31,28.86,73.76,33.78Z" style="fill:#f0d3ff;fill-rule:evenodd"/></g><g style="clip-path:url(#aa)"><rect x="68.61" y="1.44" width="87.75" height="59.42" style="fill:url(#ab)"/></g><g style="mask:url(#ac)"><path d="M83.81,14.28c-2.47-.34-4.94-.58-7.39-.74a115.29,115.29,0,0,0,7.82,9.62c25.89,1.64,53.18,13.66,71,36.07A102.16,102.16,0,0,0,83.81,14.28Z" style="fill-rule:evenodd;fill:url(#ad)"/></g><path d="M84,107.61A102.18,102.18,0,0,0,156.57,61h-.07A102.31,102.31,0,0,1,92.93,87.33a102.58,102.58,0,0,0-12.72,13.85c-1.8,2.36-3.48,4.79-5,7.25q4.41-.21,8.87-.82" style="fill:#00dd5e;fill-rule:evenodd"/><g style="clip-path:url(#ae)"><rect x="75.16" y="61.01" width="81.41" height="47.43" style="fill:url(#af)"/></g><g style="mask:url(#ag)"><path d="M92.93,87.33a102.58,102.58,0,0,0-12.72,13.85c-1.8,2.36-3.48,4.79-5,7.25,5-6.27,12.79-14.8,18.43-19.52,19.84-1.08,46.06-10.34,63-27.9h-.07A102.31,102.31,0,0,1,92.93,87.33Z" style="fill:#f6dcfd;fill-rule:evenodd"/></g><g style="mask:url(#ah)"><path d="M85.09,97.08a102.18,102.18,0,0,0,71.24-35.83c-16.92,17.4-43,26.58-62.74,27.66A107.42,107.42,0,0,0,85.09,97.08Z" style="fill:#002738;fill-rule:evenodd"/></g><g style="mask:url(#ai)"><path d="M84.24,23.16A122.36,122.36,0,0,1,68.61,1.44a102.92,102.92,0,0,0,11.6,19.25c1.05,1.38,2.14,2.73,3.25,4a102.19,102.19,0,0,1,72.83,36.12h.07c-.09-.2-.18-.4-.28-.6C138.25,37.18,110.53,24.82,84.24,23.16Z" style="fill:#f9fcba;fill-rule:evenodd"/></g><g style="mask:url(#aj)"><path d="M109.06,12.1A116.65,116.65,0,0,0,97.55,7.26,70.25,70.25,0,0,0,102,17c.62,1.12,3.52,5.65,4.19,6.74,23.25,8.3,39.53,19.88,50.23,37.24h0C149.44,41.78,132.78,23.64,109.06,12.1Z" style="fill:#005b50;fill-rule:evenodd"/></g><path d="M116.54,8.53c22.16,13.75,36,33.12,39.93,52.49l-.05,0c-9.49-17.67-27.09-33.4-49.92-42.73-.6-1.11-1.16-2.23-1.7-3.36A65.25,65.25,0,0,1,99.8,0a113.72,113.72,0,0,1,16.74,8.53" style="fill-rule:evenodd;fill:url(#m)"/><g style="clip-path:url(#al)"><rect x="109.16" y="-6.55" width="37.95" height="74.13" transform="translate(55.63 140.48) rotate(-69.99)" style="fill:url(#am)"/></g><g style="mask:url(#an)"><path d="M109.06,12.1c-1.89-.91-3.79-1.78-5.71-2.58a84.65,84.65,0,0,0,4.11,8C127.66,26,146.69,41.12,156,59.73,148.69,41,132.25,23.38,109.06,12.1Z" style="fill:#e60040;fill-rule:evenodd"/></g><g style="mask:url(#ao)"><path d="M107.46,17.56A83,83,0,0,1,99.8,0a65.25,65.25,0,0,0,5,14.91c.54,1.13,1.1,2.25,1.7,3.36C129.33,27.6,146.93,43.33,156.42,61l.05,0-.09-.44C147.27,41.58,128,26.15,107.46,17.56Z" style="fill:#f9fcba;fill-rule:evenodd"/></g></svg>